<?xml version="1.0" standalone="no"?>
<!DOCTYPE svg PUBLIC "-//W3C//DTD SVG 20010904//EN"
 "http://www.w3.org/TR/2001/REC-SVG-20010904/DTD/svg10.dtd">
<svg version="1.0" xmlns="http://www.w3.org/2000/svg"
 width="224.000000pt" height="224.000000pt" viewBox="0 0 224.000000 224.000000"
 preserveAspectRatio="xMidYMid meet">
<metadata>
Created by potrace 1.11, written by Peter Selinger 2001-2013
</metadata>
<g transform="translate(0.000000,224.000000) scale(0.100000,-0.100000)"
fill="#000000" stroke="none">
<path d="M476 2158 c-10 -29 -20 -60 -23 -68 -4 -13 -7 -12 -18 3 -7 10 -16
14 -19 9 -11 -19 -26 -191 -26 -312 0 -69 -7 -197 -15 -285 -13 -144 -19 -436
-8 -392 2 9 8 17 12 17 31 0 333 -117 470 -181 57 -27 106 -47 109 -44 3 3 -1
5 -8 5 -7 0 -11 2 -8 5 8 8 39 -6 33 -15 -3 -4 3 -14 12 -21 14 -12 15 -11 9
7 -5 15 -2 24 10 28 9 4 19 4 22 1 3 -3 0 -5 -6 -5 -7 0 -12 -4 -12 -9 0 -5 9
-7 20 -4 11 3 17 10 13 16 -3 6 -1 7 5 3 6 -4 42 9 79 28 92 46 172 78 336
137 124 44 137 47 137 30 0 -15 5 -18 21 -14 22 6 22 6 14 237 -4 127 -7 312
-5 411 2 167 -10 331 -26 357 -5 7 -11 5 -20 -6 -10 -15 -15 -9 -34 48 -12 37
-25 66 -29 66 -4 0 -15 -27 -25 -61 -9 -33 -30 -89 -45 -124 -25 -54 -36 -67
-68 -80 -123 -52 -383 -79 -533 -56 -95 15 -201 52 -245 85 -29 23 -39 42 -67
131 -18 58 -35 105 -39 105 -3 0 -13 -24 -23 -52z m320 -604 c30 -18 60 -48
79 -78 25 -42 30 -59 30 -115 0 -92 -37 -154 -123 -205 -11 -7 -12 -4 -3 12 6
11 11 33 11 48 0 22 -2 25 -15 14 -23 -19 -48 -4 -43 25 4 21 1 25 -18 25 -26
0 -64 -43 -64 -72 0 -11 14 -33 31 -50 l30 -31 -50 6 c-196 23 -279 239 -147
384 50 54 102 74 178 70 41 -2 69 -11 104 -33z m609 17 c154 -71 185 -270 59
-380 l-39 -35 -3 31 c-3 26 -6 29 -27 25 -29 -5 -44 20 -25 43 10 13 9 15 -12
15 -57 0 -93 -61 -63 -107 22 -32 15 -37 -32 -24 -174 47 -232 260 -104 385
66 65 166 84 246 47z m-376 -465 c9 -11 5 -24 -16 -60 -30 -49 -48 -57 -58
-27 -3 10 -14 26 -25 36 -23 20 -26 51 -7 58 26 11 95 6 106 -7z"/>
<path d="M1505 1029 c-269 -89 -389 -127 -423 -134 -18 -4 -36 -13 -39 -21 -3
-9 -20 -14 -45 -14 -49 0 -198 39 -198 52 0 5 -4 6 -10 3 -11 -7 -238 67 -284
92 -19 10 -26 11 -21 3 6 -9 3 -10 -13 -1 -38 20 -77 33 -106 36 -16 2 -32 9
-37 16 -18 29 -18 -17 -1 -86 l18 -70 -29 -57 c-37 -71 -48 -177 -23 -225 18
-35 68 -70 115 -79 26 -5 33 -13 42 -48 15 -55 20 -60 89 -86 33 -12 60 -26
60 -30 0 -8 -191 -30 -261 -30 -57 0 -75 -25 -64 -89 7 -44 22 -61 31 -37 3 9
12 12 21 9 13 -5 12 -8 -5 -14 -26 -10 -27 -17 -6 -44 15 -20 15 -20 76 2 l60
23 183 -95 c174 -91 183 -94 198 -77 23 25 21 32 -5 33 -13 0 -17 3 -10 6 9 3
-2 14 -28 29 -23 13 -47 21 -53 17 -6 -3 -7 -1 -3 5 4 6 -20 25 -59 47 -36 20
-67 41 -71 46 -3 5 -13 5 -24 -1 -14 -8 -18 -6 -16 7 2 14 14 25 44 40 2 1 -2
11 -8 23 -12 23 3 90 20 90 22 0 60 -25 61 -39 0 -9 3 -11 5 -4 6 12 33 4 129
-41 89 -42 157 -66 184 -66 24 0 140 42 190 70 16 8 21 8 21 -2 0 -7 5 -5 13
5 6 10 75 47 152 83 77 36 145 71 151 77 7 7 19 44 28 84 21 96 33 123 51 123
31 0 96 41 116 73 29 46 22 155 -15 231 -15 30 -26 67 -24 83 2 18 -2 28 -12
29 -8 2 -82 -20 -165 -47z m-1185 -693 c0 -3 -4 -8 -10 -11 -5 -3 -10 -1 -10
4 0 6 5 11 10 11 6 0 10 -2 10 -4z m220 -106 c8 -5 11 -10 5 -10 -5 0 -17 5
-25 10 -8 5 -10 10 -5 10 6 0 17 -5 25 -10z m156 -105 c10 -8 15 -14 9 -14 -5
0 -19 6 -29 14 -11 8 -15 15 -10 15 6 0 19 -7 30 -15z"/>
<path d="M1950 700 c-8 -5 -12 -12 -9 -15 4 -3 12 1 19 10 14 17 11 19 -10 5z"/>
<path d="M1894 647 c-42 -50 -48 -70 -30 -103 10 -19 15 -23 16 -12 0 9 3 25
7 35 6 16 5 16 -10 4 -20 -16 -21 -11 -5 24 8 19 14 22 20 13 6 -9 7 -5 3 10
-4 13 -2 22 4 22 6 0 11 -9 11 -20 0 -11 5 -20 10 -20 13 0 13 6 -2 33 -10 19
-9 20 4 10 8 -7 18 -10 21 -6 4 3 -1 12 -11 20 -16 12 -16 13 1 7 20 -7 23 1
2 9 -8 4 -25 -7 -41 -26z"/>
<path d="M1895 560 c-4 -17 -5 -34 -2 -36 2 -3 7 10 11 27 8 42 0 50 -9 9z"/>
<path d="M1741 560 c-1 -19 38 -84 46 -76 3 3 -1 14 -9 23 -9 10 -13 24 -10
32 2 8 0 11 -6 7 -6 -3 -13 2 -15 11 -3 13 -5 14 -6 3z"/>
<path d="M1841 524 c0 -11 3 -14 6 -6 3 7 2 16 -1 19 -3 4 -6 -2 -5 -13z"/>
<path d="M1800 490 c0 -5 7 -10 16 -10 8 0 12 5 9 10 -3 6 -10 10 -16 10 -5 0
-9 -4 -9 -10z"/>
<path d="M1847 475 c-5 -11 0 -15 16 -15 12 0 18 4 12 8 -5 4 -13 11 -16 15
-4 4 -9 1 -12 -8z"/>
<path d="M1945 463 c-11 -3 -26 -10 -34 -16 -7 -6 -25 -12 -40 -13 -14 0 -39
-2 -54 -2 -16 -1 -25 -6 -22 -12 3 -5 1 -10 -5 -10 -6 0 -8 -4 -5 -10 3 -6 -1
-7 -10 -3 -13 5 -14 7 -3 14 21 14 0 10 -95 -14 -48 -13 -84 -27 -80 -32 5 -4
2 -5 -4 -1 -15 8 -85 -3 -79 -13 4 -6 -8 -7 -93 -13 -33 -2 -37 -5 -28 -20 8
-12 8 -24 0 -41 -11 -25 -11 -25 45 -32 48 -5 160 -20 380 -50 39 -6 42 -5 42
17 0 20 -8 25 -57 37 -32 7 -77 19 -101 27 -55 18 -74 17 -42 -2 16 -10 18
-13 5 -8 -11 4 -30 8 -42 8 -28 1 -31 16 -3 16 11 0 20 4 20 9 0 5 60 30 133
56 221 78 218 77 212 92 -3 8 -5 17 -5 19 0 4 -6 4 -35 -3z m-520 -163 c3 -5
1 -10 -4 -10 -6 0 -11 5 -11 10 0 6 2 10 4 10 3 0 8 -4 11 -10z"/>
<path d="M681 284 c0 -11 3 -14 6 -6 3 7 2 16 -1 19 -3 4 -6 -2 -5 -13z"/>
<path d="M1300 273 c0 -17 6 -23 23 -23 16 0 18 3 8 9 -7 5 -17 15 -22 22 -6
10 -9 8 -9 -8z"/>
</g>
</svg>
